<svg viewBox="-118.82500000000002 -35 237.65000000000003 75.5" xmlns="http://www.w3.org/2000/svg" xmlns:xlink="http://www.w3.org/1999/xlink" version="1.1" class="jsx-2263963463 artboard-inner" style="width: 480px; height: 152.493px; max-height: 100%;"><g transform="translate(-41 0) scale(0.6944444444444444)" fill="#232323"><g id="line1"><path d="M41.616-39.600L41.616-50.400L0-50.400L0-39.600L10.008-39.600L0-10.296L0 0L41.328 0L41.328-10.800L31.464-10.800L41.616-39.600ZM18.360-10.800L13.320-10.800L23.184-39.600L28.224-39.600L18.360-10.800Z"></path><path d="M67.968-39.600L67.968-50.400L46.296-50.400L46.296 0L46.296 0L67.968 0L67.968-10.800L58.536-10.800L58.536-23.256L67.968-23.256L67.968-33.984L58.536-33.984L58.536-39.600L67.968-39.600Z"></path><path d="M105.768-50.400L105.768-32.184L84.888-50.328L84.888-50.400L72.648-50.400L72.648 0L84.888 0L84.888-18.360L105.768-0.216L105.768 0L118.080 0L118.080-50.400L105.768-50.400ZM105.768-13.176L84.888-31.320L84.888-37.368L105.768-19.224L105.768-13.176Z"></path></g></g><g transform="translate(-118.82500000000002 40.00000000000001) scale(0.6944444444444445)" fill="#232323"><g id="line2"><path d="M84.672-50.400L71.136-50.400L61.920-28.152L42.336-50.184L22.680-28.152L13.536-50.400L0-50.400L21.240 0L21.168 0L21.240 0L32.112 0L32.040-0.072L32.112-0.072L42.336-12.312L52.560-0.072L52.560-0.072L52.560 0L63.432 0L63.432 0L63.432 0L84.672-50.400ZM42.336-26.856L29.232-12.312L26.856-17.928L42.336-35.568L57.744-17.928L55.440-12.312L42.336-26.856Z"></path><path d="M102.096-50.400C92.664-50.400 85.032-42.768 85.032-33.264C85.032-23.832 92.664-16.200 102.096-16.200C111.600-16.200 119.232-23.832 119.232-33.264C119.232-42.768 111.600-50.400 102.096-50.400ZM102.096-26.784C98.496-26.784 95.616-29.664 95.616-33.264C95.616-36.864 98.496-39.816 102.096-39.816C105.696-39.816 108.648-36.864 108.648-33.264C108.648-29.664 105.696-26.784 102.096-26.784ZM85.032 0L119.232 0L119.232-10.800L85.032-10.800L85.032 0Z"></path><path d="M123.912 0L136.152 0L136.152-12.240L167.184-12.240L174.312 0L187.848 0L179.064-15.120C184.536-18.432 188.136-24.480 188.136-31.320C188.136-41.832 179.568-50.400 169.056-50.400L123.912-50.400L123.912 0ZM136.152-23.040L136.152-39.600L169.056-39.600C173.592-39.600 177.336-35.856 177.336-31.320C177.336-26.712 173.592-23.040 169.056-23.040L136.152-23.040Z"></path><path d="M216.216-28.728C221.616-32.904 225.000-39.240 225.000-47.016L225.000-50.400L212.760-50.400L212.760-47.016C212.760-41.544 209.664-36.360 205.056-33.768L205.056-50.400L192.816-50.400L192.816 0L192.816 0L205.056 0L205.056-21.456C211.320-20.088 216.000-14.544 216.000-7.848L216.000 0L228.240 0L228.240-7.848C228.240-17.136 223.488-24.552 216.216-28.728Z"></path><path d="M249.984-50.400C240.552-50.400 232.920-42.768 232.920-33.264C232.920-23.832 240.552-16.200 249.984-16.200C259.488-16.200 267.120-23.832 267.120-33.264C267.120-42.768 259.488-50.400 249.984-50.400ZM249.984-26.784C246.384-26.784 243.504-29.664 243.504-33.264C243.504-36.864 246.384-39.816 249.984-39.816C253.584-39.816 256.536-36.864 256.536-33.264C256.536-29.664 253.584-26.784 249.984-26.784ZM232.920 0L267.120 0L267.120-10.800L232.920-10.800L232.920 0Z"></path><path d="M294.120-50.400L294.120-18.504C294.120-14.616 293.040-11.376 289.080-11.376C285.192-11.376 284.040-14.616 284.040-18.504L284.040-50.400L271.800-50.400C271.800-45.720 271.800-19.728 271.800-18.648C271.800-7.920 278.424 0.720 289.080 0.720C299.808 0.720 306.360-7.920 306.360-18.648C306.360-19.728 306.360-45.720 306.360-50.400L294.120-50.400Z"></path><path d="M342.216-39.600L342.216-50.400L311.040-50.400L311.040-39.600L320.472-39.600L320.472-33.984L311.040-33.984L311.040-23.256L320.472-23.256L320.472 0L320.472 0L332.712 0L332.712 0L332.712-23.256L342.216-23.256L342.216-33.984L332.712-33.984L332.712-39.600L342.216-39.600Z"></path></g></g></svg>